<?xml version="1.0" encoding="utf-8"?>
<!-- Generator: Adobe Illustrator 17.0.0, SVG Export Plug-In . SVG Version: 6.00 Build 0)  -->
<!DOCTYPE svg PUBLIC "-//W3C//DTD SVG 1.1//EN" "http://www.w3.org/Graphics/SVG/1.1/DTD/svg11.dtd">
<svg version="1.1" id="fb0462f1-4822-46c6-85a1-002b71cfcb82"
	 xmlns="http://www.w3.org/2000/svg" xmlns:xlink="http://www.w3.org/1999/xlink" x="0px" y="0px" width="980.494px"
	 height="751.895px" viewBox="0 0 980.494 751.895" enable-background="new 0 0 980.494 751.895" xml:space="preserve">
<title>nakamoto</title>
<rect x="313.494" y="117" fill="#3F3D56" width="2" height="107"/>
<rect x="313.494" y="255.85" fill="#3F3D56" width="2" height="94.149"/>
<rect x="310.494" y="365" fill="#3F3D56" width="155" height="2"/>
<rect x="244.494" y="392" fill="#3F3D56" width="2" height="85"/>
<rect x="262.494" y="492" fill="#3F3D56" width="235" height="2"/>
<path fill="none" stroke="#3F3D56" stroke-width="2" stroke-miterlimit="10" d="M513.494,477"/>
<path fill="none" stroke="#3F3D56" stroke-width="2" stroke-miterlimit="10" d="M513.494,395"/>
<rect x="691.494" y="49" fill="#3F3D56" width="2" height="101"/>
<rect x="529.46" y="166" fill="#3F3D56" width="147.034" height="2"/>
<rect x="512.494" y="182" fill="#3F3D56" width="2" height="135"/>
<path fill="#3F3D56" d="M314.494,257c-9.389,0-17-7.611-17-17s7.611-17,17-17s17,7.611,17,17
	C331.484,249.384,323.879,256.989,314.494,257z M314.494,225c-8.284,0-15,6.716-15,15s6.716,15,15,15s15-6.716,15-15
	C329.485,231.719,322.775,225.009,314.494,225z"/>
<path fill="#3F3D56" d="M246.494,510c-9.389,0-17-7.611-17-17s7.611-17,17-17s17,7.611,17,17l0,0
	C263.484,502.384,255.879,509.989,246.494,510z M246.494,478c-8.284,0-15,6.716-15,15s6.716,15,15,15s15-6.716,15-15l0,0
	C261.485,484.719,254.775,478.009,246.494,478z"/>
<circle fill="none" stroke="#000000" stroke-miterlimit="10" cx="315.494" cy="366" r="16"/>
<rect x="728.494" y="239" fill="#3F3D56" width="166" height="2"/>
<rect x="711.494" y="255.85" fill="#3F3D56" width="2" height="94.149"/>
<rect x="562.494" y="365" fill="#3F3D56" width="133" height="2"/>
<rect x="796.494" y="374" fill="#3F3D56" width="138" height="2"/>
<rect x="780.494" y="392" fill="#3F3D56" width="2" height="85"/>
<rect x="529.494" y="492" fill="#3F3D56" width="235" height="2"/>
<rect x="512.494" y="415" fill="#3F3D56" width="2" height="62"/>
<circle fill="none" stroke="#000000" stroke-miterlimit="10" cx="712.494" cy="240" r="16"/>
<path fill="#3F3D56" d="M692.494,183c-9.389,0-17-7.611-17-17s7.611-17,17-17c9.389,0,17,7.611,17,17
	C709.484,175.384,701.879,182.989,692.494,183z M692.494,151c-8.284,0-15,6.716-15,15s6.716,15,15,15s15-6.716,15-15
	C707.485,157.719,700.775,151.009,692.494,151L692.494,151z"/>
<path fill="#3F3D56" d="M513.494,183c-9.389,0-17-7.611-17-17s7.611-17,17-17c9.389,0,17,7.611,17,17
	C530.484,175.384,522.879,182.989,513.494,183z M513.494,151c-8.284,0-15,6.716-15,15s6.716,15,15,15c8.284,0,15-6.716,15-15
	C528.485,157.719,521.775,151.009,513.494,151L513.494,151z"/>
<path fill="#3F3D56" d="M780.494,393c-9.389,0-17-7.611-17-17s7.611-17,17-17c9.389,0,17,7.611,17,17l0,0
	C797.484,385.384,789.879,392.989,780.494,393z M780.494,361c-8.284,0-15,6.716-15,15s6.716,15,15,15s15-6.716,15-15l0,0
	C795.485,367.719,788.775,361.009,780.494,361z"/>
<circle fill="none" stroke="#000000" stroke-miterlimit="10" cx="780.494" cy="493" r="16"/>
<path fill="#3F3D56" d="M513.494,510c-9.389,0-17-7.611-17-17s7.611-17,17-17c9.389,0,17,7.611,17,17l0,0
	C530.484,502.384,522.879,509.989,513.494,510z M513.494,478c-8.284,0-15,6.716-15,15s6.716,15,15,15c8.284,0,15-6.716,15-15l0,0
	C528.485,484.719,521.775,478.009,513.494,478z"/>
<path fill="#3F3D56" d="M711.494,383c-9.389,0-17-7.611-17-17s7.611-17,17-17c9.389,0,17,7.611,17,17l0,0
	C728.484,375.384,720.879,382.989,711.494,383z M711.494,351c-8.284,0-15,6.716-15,15s6.716,15,15,15s15-6.716,15-15
	C726.485,357.719,719.775,351.009,711.494,351z"/>
<path fill="#3F3D56" d="M246.494,342c-11.046,0-20,8.954-20,20s8.954,20,20,20s20-8.954,20-20
	C266.462,350.968,257.526,342.032,246.494,342z M246.494,348c3.314,0,6,2.686,6,6s-2.686,6-6,6s-6-2.686-6-6
	C240.505,350.691,243.185,348.011,246.494,348z M246.494,376.885c-4.812-0.022-9.303-2.419-12-6.404c0.096-4,8-6.202,12-6.202
	s11.904,2.202,12,6.202C255.794,374.463,251.305,376.858,246.494,376.885z"/>
<path fill="#3F3D56" d="M315.494,69c-11.046,0-20,8.954-20,20s8.954,20,20,20s20-8.954,20-20
	C335.462,77.968,326.526,69.032,315.494,69z M315.494,75c3.314,0,6,2.686,6,6s-2.686,6-6,6s-6-2.686-6-6
	C309.505,77.691,312.185,75.011,315.494,75z M315.494,103.885c-4.812-0.022-9.303-2.419-12-6.404c0.096-4,8-6.202,12-6.202
	s11.904,2.202,12,6.202C324.794,101.463,320.305,103.858,315.494,103.885z"/>
<path fill="#3F3D56" d="M692.494,0c-11.046,0-20,8.954-20,20s8.954,20,20,20c11.046,0,20-8.954,20-20
	C712.462,8.968,703.526,0.032,692.494,0z M692.494,6c3.314,0,6,2.686,6,6s-2.686,6-6,6s-6-2.686-6-6
	C686.505,8.691,689.185,6.011,692.494,6z M692.494,34.885c-4.812-0.022-9.303-2.419-12-6.404c0.096-4,8-6.202,12-6.202
	s11.904,2.202,12,6.202C701.794,32.463,697.305,34.858,692.494,34.885z"/>
<path fill="#3F3D56" d="M922.494,219c-11.046,0-20,8.954-20,20s8.954,20,20,20c11.046,0,20-8.954,20-20
	C942.462,227.968,933.526,219.032,922.494,219z M922.494,225c3.314,0,6,2.686,6,6s-2.686,6-6,6s-6-2.686-6-6
	C916.505,227.691,919.185,225.011,922.494,225z M922.494,253.885c-4.812-0.022-9.303-2.419-12-6.404c0.096-4,8-6.202,12-6.202
	s11.904,2.202,12,6.202C931.794,251.463,927.305,253.858,922.494,253.885z"/>
<path fill="#3F3D56" d="M960.494,354c-11.046,0-20,8.954-20,20s8.954,20,20,20s20-8.954,20-20
	C980.462,362.968,971.526,354.032,960.494,354z M960.494,360c3.314,0,6,2.686,6,6s-2.686,6-6,6s-6-2.686-6-6
	C954.505,362.691,957.185,360.011,960.494,360z M960.494,388.885c-4.812-0.022-9.303-2.419-12-6.404c0.096-4,8-6.202,12-6.202
	s11.904,2.202,12,6.202C969.794,386.463,965.305,388.858,960.494,388.885z"/>
<path fill="#6C63FF" d="M514.772,353.667l-2.049,8.215c2.323,0.579,9.483,2.941,10.643-1.708
	C524.575,355.327,517.095,354.246,514.772,353.667z"/>
<path fill="#6C63FF" d="M511.69,366.028l-2.26,9.058c2.789,0.693,11.392,3.455,12.664-1.655
	C523.423,368.103,514.479,366.724,511.69,366.028z"/>
<path fill="#6C63FF" d="M524.034,329.212c-20.092-5.01-40.44,7.217-45.45,27.308s7.217,40.44,27.308,45.45
	c20.091,5.009,40.439-7.216,45.449-27.307c5.013-20.088-7.208-40.435-27.296-45.448
	C524.042,329.214,524.038,329.213,524.034,329.212z M531.496,360.249c-0.541,3.653-2.565,5.422-5.254,6.041
	c3.691,1.921,5.57,4.869,3.78,9.979c-2.22,6.345-7.497,6.881-14.512,5.553l-1.703,6.824l-4.115-1.025l1.68-6.733
	c-1.096-0.272-2.189-0.555-3.279-0.85l-1.686,6.764l-4.11-1.026L504,378.94c-0.961-0.246-1.937-0.508-2.933-0.757l-5.354-1.336
	l2.042-4.709c0,0,3.032,0.807,2.991,0.747c0.787,0.252,1.629-0.181,1.882-0.968c0.001-0.003,0.002-0.007,0.003-0.01l2.691-10.787
	c0.151,0.037,0.298,0.073,0.434,0.108c-0.139-0.055-0.282-0.101-0.427-0.137l1.919-7.701c0.119-1.186-0.733-2.25-1.917-2.392
	c0.065-0.044-2.988-0.743-2.988-0.743l1.095-4.395l5.675,1.417l-0.005,0.021c0.853,0.212,1.732,0.413,2.628,0.617l1.686-6.757
	l4.112,1.025l-1.652,6.625c1.104,0.252,2.215,0.506,3.297,0.775l1.641-6.581l4.114,1.025l-1.685,6.76
	C528.443,352.576,532.242,355.258,531.496,360.249L531.496,360.249z"/>
<path fill="#E6E6E6" d="M152,733.294C149.154,759.17-0.226,756.998,0,733.292C2.846,707.418,152.226,709.59,152,733.294z"/>
<polygon fill="#FFB8B8" points="103.754,668.156 109.81,681.276 120.911,680.267 127.976,657.054 116.874,650.999 "/>
<polygon fill="#FFB8B8" points="65.642,698.373 65.403,707.516 82.56,708.525 82.56,697.424 "/>
<polygon fill="#2F2E41" points="71.458,531.908 75.495,612.647 65.403,700.451 95.68,704.488 114.856,593.472 120.911,517.778 "/>
<path fill="#2F2E41" d="M24.024,502.64c0,0-12.111,79.73,13.12,105.971s59.545,72.666,59.545,72.666l24.222-30.277l-61.564-65.601
	l12.111-44.407l49.453-23.213l-8.074-55.508l-72.666-1.009L24.024,502.64z"/>
<circle fill="#FFB8B8" cx="83.569" cy="295.744" r="22.203"/>
<path fill="#FFB8B8" d="M64.394,300.791c0,0-1.009,31.287-6.055,35.324s18.166,21.194,18.166,21.194l15.139-24.222v-22.203
	L64.394,300.791z"/>
<polygon fill="#D0CDE1" points="74.486,343.179 62.233,324.677 55.31,334.096 45.218,362.355 53.292,472.362 100.726,473.371 
	106.782,347.216 91.643,329.05 "/>
<path fill="#2F2E41" d="M125.958,350.244l8.074-1.009c0,0,2.018,1.009,3.028,8.074s13.12,69.638,13.12,69.638l-16.148,76.703
	l-18.166-24.222l11.102-42.388l-11.102-42.388L125.958,350.244z"/>
<polygon fill="#2F2E41" points="23.015,349.234 16.959,349.234 1.821,430.983 15.95,494.566 30.079,471.353 26.042,446.122 
	28.061,423.919 35.126,410.798 "/>
<path fill="#2F2E41" d="M112.837,677.239c0,0-6.055-2.018-6.055,2.018s4.037,16.148,4.037,16.148s-6.055,37.342,3.028,35.324
	s16.148-19.176,17.157-24.222s6.055-31.287,6.055-31.287s8.074-19.176,3.028-20.185s-19.176-5.046-19.176-5.046
	S128.985,675.22,112.837,677.239z"/>
<path fill="#2F2E41" d="M83.569,708.525c0,0-16.148-10.092-19.176-2.018c-2.008,5.889-3.362,11.981-4.037,18.166
	c0,0-4.037,13.12,12.111,11.102s14.129-2.018,15.139-8.074S83.569,708.525,83.569,708.525z"/>
<path fill="#2F2E41" d="M70.449,295.744l4.037-1.009c0,0,3.028-17.157,10.092-15.139s25.231,4.037,25.231-4.037
	s-17.157-15.139-27.25-14.129s-27.25,4.037-26.24,19.176s7.522,29.865,7.522,29.865l0.526-8.976L70.449,295.744z"/>
<polygon fill="#D0CDE1" points="91.643,355.29 74.486,343.179 91.643,329.05 97.6,336.197 "/>
<polygon fill="#D0CDE1" points="59.347,354.281 74.486,343.179 62.375,325.013 55.31,334.096 "/>
<path fill="#2F2E41" d="M133.022,349.234l-32.296-13.12l-7.569-5.551l-22.708,100.42L55.31,385.567l4.542-58.032l-41.884,21.699
	l14.129,68.629l2.018,26.24l-6.055,21.194c0,0-21.194,15.139-14.129,31.287c7.065,16.148,15.139,17.157,15.139,17.157
	s34.314-32.296,36.333-40.37s5.046-22.203,5.046-22.203s17.157,64.592,37.342,63.582s20.185-22.203,20.185-22.203l-5.046-22.203
	l-8.074-23.213l4.037-38.351L133.022,349.234z"/>
<rect x="473.303" y="324.575" fill="#FFFFFF" width="82.303" height="82.303"/>
<circle fill="#FFFF00" cx="517.289" cy="367.835" r="48.172"/>
<path fill-rule="evenodd" clip-rule="evenodd" fill="#353435" d="M529.955,374.747l8.571,26.206l-13.838-10.095l-0.002,0.001
	l-1.113-0.811l0.001-0.001l-1.581-1.152l-0.239-0.174l-1.114-0.813l1.599-1.116l1.91-1.41c5.084-3.78,1.859-13.251-4.452-13.58
	c-1.53-0.077-3.426,0.314-5.687,1.172c-1.698,0.658-3.385,1.33-5.07,2.009c-1.621,0.511-2.692,0.42-3.203-0.281
	c-0.65-0.891-0.585-1.805,0.19-2.743l18.78-13.357l0.011,0.029l27.572-0.05L529.955,374.747z"/>
<path fill="#353435" d="M495.746,379.917l-22.484,11.346l-2.481,1.252l-23.639,11.928c-0.171,0.086-0.349,0.126-0.525,0.126
	c-0.478,0-0.935-0.301-1.147-0.812c-0.29-0.698-0.012-1.523,0.621-1.843l23.535-11.876l2.473-1.248l22.596-11.403
	c0.634-0.32,1.383-0.012,1.673,0.686C496.658,378.772,496.379,379.597,495.746,379.917"/>
<path fill="#353435" d="M491.253,374.876l-20.545,10.367l-2.478,1.251l-16.518,8.335c-0.17,0.086-0.348,0.127-0.524,0.127
	c-0.479,0-0.936-0.302-1.148-0.813c-0.29-0.698-0.012-1.523,0.622-1.843l16.713-8.434l2.491-1.256l20.338-10.263
	c0.633-0.32,1.382-0.013,1.672,0.686C492.165,373.731,491.887,374.556,491.253,374.876"/>
<path fill="#353435" d="M493.368,388.433l-16.782,8.469l-2.53,1.276l-12.416,6.266c-0.17,0.085-0.348,0.126-0.524,0.126
	c-0.479,0-0.936-0.301-1.148-0.812c-0.29-0.698-0.011-1.524,0.622-1.843l12.006-6.059l2.504-1.263l17.217-8.688
	c0.634-0.32,1.382-0.012,1.672,0.686C494.279,387.288,494.001,388.114,493.368,388.433"/>
<path fill-rule="evenodd" clip-rule="evenodd" fill="#353435" d="M493.974,400.953l6.936-21.212c1.158,1.252,2.73,2.104,4.59,2.187
	c1.497,0.072,3.403-0.325,5.717-1.192c1.712-0.64,3.408-1.282,5.086-1.928c1.63-0.458,2.747-0.276,3.348,0.544
	c0.541,0.74,0.591,1.564,0.15,2.47c-0.171,0.364-0.4,0.717-0.689,1.06L493.974,400.953z"/>
<path fill="#353435" d="M523.161,353.808l-21.915,15.314c-1.117,0.818-1.829,1.903-2.195,3.097l-18.846-13.637l27.576,0.05
	l8.47-26.239l6.481,20.081l0.009,0.029L523.161,353.808z"/>
<path fill="#353435" d="M553.522,333.7l-2.17,1.942c7.31,8.263,11.749,19.13,11.749,31.032c0,25.875-20.975,46.85-46.85,46.85
	c-14.3,0-27.101-6.405-35.693-16.502l-0.266,0.122l-2.481,1.134c9.125,11.09,22.957,18.16,38.44,18.16
	c27.483,0,49.765-22.282,49.765-49.765C566.016,354.026,561.297,342.479,553.522,333.7"/>
</svg>
