<svg width="336" height="257" viewBox="0 0 336 257" fill="none" xmlns="http://www.w3.org/2000/svg">
<path d="M108.115 39.991H107.429V76.5639H108.115V39.991Z" fill="#EEEEFF"/>
<path d="M108.115 87.4502H107.429V119.631H108.115V87.4502Z" fill="#EEEEFF"/>
<path d="M160.759 124.758H113.598V125.443H160.759V124.758Z" fill="#EEEEFF"/>
<path d="M84.4697 133.987H83.7843V163.04H84.4697V133.987Z" fill="#EEEEFF"/>
<path d="M170.483 168.167H89.9526V168.852H170.483V168.167Z" fill="#EEEEFF"/>
<path d="M237.649 16.7484H236.964V51.2705H237.649V16.7484Z" fill="#EEEEFF"/>
<path d="M231.824 56.7393H181.438V57.4246H231.824V56.7393Z" fill="#EEEEFF"/>
<path d="M176.309 62.2081H175.624V109.262H176.309V62.2081Z" fill="#EEEEFF"/>
<path d="M107.772 87.8433C104.555 87.8433 101.947 85.2419 101.947 82.0327C101.947 78.8235 104.555 76.222 107.772 76.222C110.99 76.222 113.598 78.8235 113.598 82.0327C113.594 85.2402 110.988 87.8396 107.772 87.8433ZM107.772 76.9057C104.933 76.9057 102.632 79.2012 102.632 82.0327C102.632 84.8642 104.933 87.1597 107.772 87.1597C110.611 87.1597 112.912 84.8642 112.912 82.0327C112.909 79.2022 110.61 76.9087 107.772 76.9057Z" fill="#EEEEFF"/>
<path d="M84.4697 174.32C81.2522 174.32 78.644 171.718 78.644 168.509C78.644 165.3 81.2522 162.698 84.4697 162.698C87.6871 162.698 90.2953 165.3 90.2953 168.509C90.2918 171.716 87.6857 174.316 84.4697 174.32ZM84.4697 163.382C81.6309 163.382 79.3294 165.677 79.3294 168.509C79.3294 171.34 81.6309 173.636 84.4697 173.636C87.3084 173.636 89.6099 171.34 89.6099 168.509C89.6068 165.678 87.3074 163.385 84.4697 163.382Z" fill="#EEEEFF"/>
<path d="M108.115 130.569C111.143 130.569 113.598 128.12 113.598 125.1C113.598 122.079 111.143 119.631 108.115 119.631C105.087 119.631 102.632 122.079 102.632 125.1C102.632 128.12 105.087 130.569 108.115 130.569Z" fill="white"/>
<path d="M306.529 81.6909H249.643V82.3763H306.529V81.6909Z" fill="#EEEEFF"/>
<path d="M244.503 87.4502H243.818V119.631H244.503V87.4502Z" fill="#EEEEFF"/>
<path d="M238.335 124.758H192.758V125.443H238.335V124.758Z" fill="#EEEEFF"/>
<path d="M320.236 127.834H272.946V128.52H320.236V127.834Z" fill="#EEEEFF"/>
<path d="M268.148 133.987H267.463V163.04H268.148V133.987Z" fill="#EEEEFF"/>
<path d="M261.98 168.167H181.449V168.852H261.98V168.167Z" fill="#EEEEFF"/>
<path d="M176.309 141.848H175.624V163.04H176.309V141.848Z" fill="#EEEEFF"/>
<path d="M244.16 87.5016C247.189 87.5016 249.643 85.0531 249.643 82.0327C249.643 79.0123 247.189 76.5638 244.16 76.5638C241.132 76.5638 238.677 79.0123 238.677 82.0327C238.677 85.0531 241.132 87.5016 244.16 87.5016Z" fill="white"/>
<path d="M237.307 62.5499C234.089 62.5499 231.481 59.9484 231.481 56.7392C231.481 53.5301 234.089 50.9286 237.307 50.9286C240.524 50.9286 243.132 53.5301 243.132 56.7392C243.129 59.9467 240.523 62.5461 237.307 62.5499ZM237.307 51.6122C234.468 51.6122 232.166 53.9077 232.166 56.7392C232.166 59.5707 234.468 61.8663 237.307 61.8663C240.146 61.8663 242.447 59.5707 242.447 56.7392C242.444 53.9088 240.144 51.6153 237.307 51.6122Z" fill="#EEEEFF"/>
<path d="M175.966 62.5499C172.749 62.5499 170.141 59.9484 170.141 56.7392C170.141 53.5301 172.749 50.9286 175.966 50.9286C179.184 50.9286 181.792 53.5301 181.792 56.7392C181.789 59.9467 179.182 62.5461 175.966 62.5499ZM175.966 51.6122C173.127 51.6122 170.826 53.9077 170.826 56.7392C170.826 59.5707 173.127 61.8663 175.966 61.8663C178.805 61.8663 181.107 59.5707 181.107 56.7392C181.104 53.9088 178.804 51.6153 175.966 51.6122Z" fill="#EEEEFF"/>
<path d="M267.463 134.329C264.246 134.329 261.637 131.727 261.637 128.518C261.637 125.309 264.246 122.707 267.463 122.707C270.681 122.707 273.289 125.309 273.289 128.518C273.285 131.725 270.679 134.325 267.463 134.329ZM267.463 123.391C264.624 123.391 262.323 125.686 262.323 128.518C262.323 131.349 264.624 133.645 267.463 133.645C270.302 133.645 272.603 131.349 272.603 128.518C272.6 125.687 270.301 123.394 267.463 123.391Z" fill="#EEEEFF"/>
<path d="M267.463 173.978C270.491 173.978 272.946 171.529 272.946 168.509C272.946 165.489 270.491 163.04 267.463 163.04C264.435 163.04 261.98 165.489 261.98 168.509C261.98 171.529 264.435 173.978 267.463 173.978Z" fill="white"/>
<path d="M175.966 174.32C172.749 174.32 170.141 171.718 170.141 168.509C170.141 165.3 172.749 162.698 175.966 162.698C179.184 162.698 181.792 165.3 181.792 168.509C181.789 171.716 179.182 174.316 175.966 174.32ZM175.966 163.382C173.127 163.382 170.826 165.677 170.826 168.509C170.826 171.34 173.127 173.636 175.966 173.636C178.805 173.636 181.107 171.34 181.107 168.509C181.104 165.678 178.804 163.385 175.966 163.382Z" fill="#EEEEFF"/>
<path d="M243.818 130.911C240.6 130.911 237.992 128.309 237.992 125.1C237.992 121.891 240.6 119.289 243.818 119.289C247.035 119.289 249.643 121.891 249.643 125.1C249.64 128.307 247.034 130.907 243.818 130.911ZM243.818 119.973C240.979 119.973 238.678 122.268 238.678 125.1C238.678 127.931 240.979 130.227 243.818 130.227C246.657 130.227 248.958 127.931 248.958 125.1C248.955 122.269 246.656 119.976 243.818 119.973Z" fill="#EEEEFF"/>
<path d="M84.4696 116.897C80.6844 116.897 77.616 119.957 77.616 123.733C77.616 127.508 80.6844 130.569 84.4696 130.569C88.2549 130.569 91.3233 127.508 91.3233 123.733C91.3123 119.962 88.2501 116.908 84.4696 116.897ZM84.4696 118.947C85.6053 118.947 86.5257 119.865 86.5257 120.998C86.5257 122.131 85.6053 123.049 84.4696 123.049C83.334 123.049 82.4135 122.131 82.4135 120.998C82.4173 119.867 83.3357 118.951 84.4696 118.947ZM84.4696 128.82C82.8206 128.813 81.2817 127.994 80.3574 126.631C80.3903 125.264 83.0989 124.512 84.4696 124.512C85.8404 124.512 88.5489 125.264 88.5818 126.631C87.6566 127.993 86.1183 128.811 84.4696 128.82Z" fill="#EEEEFF"/>
<path d="M108.115 23.5844C104.33 23.5844 101.261 26.6449 101.261 30.4204C101.261 34.196 104.33 37.2565 108.115 37.2565C111.9 37.2565 114.969 34.196 114.969 30.4204C114.958 26.6496 111.895 23.5953 108.115 23.5844ZM108.115 25.6352C109.251 25.6352 110.171 26.5533 110.171 27.686C110.171 28.8187 109.251 29.7368 108.115 29.7368C106.979 29.7368 106.059 28.8187 106.059 27.686C106.063 26.555 106.981 25.6389 108.115 25.6352ZM108.115 35.5082C106.466 35.5006 104.927 34.6813 104.003 33.3192C104.036 31.952 106.744 31.1994 108.115 31.1994C109.486 31.1994 112.194 31.952 112.227 33.3192C111.302 34.6803 109.764 35.4989 108.115 35.5082Z" fill="#EEEEFF"/>
<path d="M237.307 0C233.522 0 230.453 3.0605 230.453 6.83606C230.453 10.6116 233.522 13.6721 237.307 13.6721C241.092 13.6721 244.16 10.6116 244.16 6.83606C244.15 3.06529 241.087 0.0109377 237.307 0ZM237.307 2.05082C238.442 2.05082 239.363 2.9689 239.363 4.10163C239.363 5.23437 238.442 6.15245 237.307 6.15245C236.171 6.15245 235.251 5.23437 235.251 4.10163C235.254 2.97061 236.173 2.05458 237.307 2.05082ZM237.307 11.9238C235.658 11.9163 234.119 11.097 233.195 9.73489C233.227 8.36768 235.936 7.61503 237.307 7.61503C238.678 7.61503 241.386 8.36768 241.419 9.73489C240.494 11.0959 238.955 11.9146 237.307 11.9238Z" fill="#EEEEFF"/>
<path d="M316.124 74.8549C312.339 74.8549 309.271 77.9154 309.271 81.6909C309.271 85.4665 312.339 88.527 316.124 88.527C319.909 88.527 322.978 85.4665 322.978 81.6909C322.967 77.9201 319.905 74.8658 316.124 74.8549ZM316.124 76.9057C317.26 76.9057 318.18 77.8238 318.18 78.9565C318.18 80.0892 317.26 81.0073 316.124 81.0073C314.989 81.0073 314.068 80.0892 314.068 78.9565C314.072 77.8255 314.99 76.9094 316.124 76.9057ZM316.124 86.7786C314.475 86.7711 312.936 85.9518 312.012 84.5897C312.045 83.2225 314.753 82.4699 316.124 82.4699C317.495 82.4699 320.204 83.2225 320.236 84.5897C319.311 85.9508 317.773 86.7694 316.124 86.7786Z" fill="#EEEEFF"/>
<path d="M329.146 120.998C325.361 120.998 322.292 124.059 322.292 127.834C322.292 131.61 325.361 134.67 329.146 134.67C332.931 134.67 336 131.61 336 127.834C335.989 124.063 332.927 121.009 329.146 120.998ZM329.146 123.049C330.282 123.049 331.202 123.967 331.202 125.1C331.202 126.233 330.282 127.151 329.146 127.151C328.011 127.151 327.09 126.233 327.09 125.1C327.094 123.969 328.012 123.053 329.146 123.049ZM329.146 132.922C327.497 132.914 325.958 132.095 325.034 130.733C325.067 129.366 327.775 128.613 329.146 128.613C330.517 128.613 333.225 129.366 333.258 130.733C332.333 132.094 330.795 132.913 329.146 132.922Z" fill="#EEEEFF"/>
<path d="M176.404 120.884L175.702 123.693C176.498 123.891 178.952 124.698 179.349 123.109C179.764 121.452 177.2 121.082 176.404 120.884Z" fill="#1E1E1E"/>
<path d="M175.348 125.11L174.574 128.206C175.529 128.443 178.477 129.387 178.913 127.64C179.369 125.819 176.304 125.348 175.348 125.11Z" fill="#1E1E1E"/>
<path d="M179.578 112.526C172.693 110.813 165.72 114.992 164.003 121.86C162.286 128.727 166.476 135.682 173.361 137.394C180.246 139.107 187.219 134.928 188.936 128.061C190.654 121.195 186.466 114.24 179.582 112.527C179.581 112.526 179.58 112.526 179.578 112.526ZM182.135 123.134C181.95 124.383 181.256 124.987 180.335 125.199C181.6 125.856 182.244 126.863 181.63 128.61C180.869 130.779 179.061 130.962 176.657 130.508L176.074 132.84L174.663 132.49L175.239 130.189C174.864 130.096 174.489 129.999 174.115 129.898L173.538 132.21L172.129 131.859L172.713 129.523C172.384 129.439 172.049 129.349 171.708 129.264L169.873 128.807L170.573 127.198C170.573 127.198 171.612 127.474 171.598 127.453C171.867 127.539 172.156 127.391 172.243 127.122C172.243 127.121 172.243 127.12 172.244 127.119L173.166 123.432C173.218 123.444 173.268 123.457 173.315 123.469C173.267 123.45 173.218 123.434 173.168 123.422L173.826 120.79C173.867 120.384 173.575 120.021 173.169 119.972C173.191 119.957 172.145 119.718 172.145 119.718L172.52 118.216L174.465 118.7L174.463 118.707C174.756 118.78 175.057 118.849 175.364 118.918L175.942 116.609L177.351 116.959L176.785 119.224C177.163 119.31 177.544 119.397 177.914 119.488L178.477 117.239L179.887 117.589L179.309 119.9C181.089 120.511 182.391 121.428 182.135 123.134Z" fill="#1E1E1E"/>
<path d="M52.0883 250.642C51.1129 259.486 -0.0772713 258.744 8.75901e-05 250.641C0.975455 241.797 52.1656 242.54 52.0883 250.642Z" fill="#EEEEFF"/>
<path d="M35.5552 228.378L37.6305 232.862L41.4346 232.517L43.8557 224.583L40.0512 222.513L35.5552 228.378Z" fill="#FFB8B8"/>
<path d="M22.4949 238.706L22.413 241.832L28.2924 242.177V238.382L22.4949 238.706Z" fill="#FFB8B8"/>
<path d="M24.4879 181.808L25.8713 209.405L22.413 239.416L32.7884 240.796L39.3597 202.851L41.4347 176.978L24.4879 181.808Z" fill="#3F3D56"/>
<path d="M8.23272 171.804C8.23272 171.804 4.08247 199.055 12.7287 208.025C21.375 216.994 33.1339 232.862 33.1339 232.862L41.4344 222.513L20.3374 200.091L24.4876 184.912L41.4344 176.978L38.6675 158.005L13.766 157.66L8.23272 171.804Z" fill="#3F3D56"/>
<path d="M28.6377 108.675C32.8398 108.675 36.2463 105.277 36.2463 101.086C36.2463 96.8948 32.8398 93.4971 28.6377 93.4971C24.4355 93.4971 21.0291 96.8948 21.0291 101.086C21.0291 105.277 24.4355 108.675 28.6377 108.675Z" fill="#FFB8B8"/>
<path d="M22.0671 102.811C22.0671 102.811 21.7214 113.505 19.9922 114.885C18.263 116.265 26.2174 122.129 26.2174 122.129L31.4053 113.85V106.261L22.0671 102.811Z" fill="#FFB8B8"/>
<path d="M25.525 117.3L21.3261 110.976L18.9537 114.195L15.4954 123.854L18.2622 161.455L34.5171 161.8L36.5924 118.68L31.4045 112.471L25.525 117.3Z" fill="#EEEEFF"/>
<path d="M43.1637 119.715L45.9305 119.37C45.9305 119.37 46.6221 119.715 46.9682 122.129C47.3143 124.544 51.4642 145.932 51.4642 145.932L45.9305 172.149L39.7053 163.87L43.5098 149.382L39.7053 134.893L43.1637 119.715Z" fill="#3F3D56"/>
<path d="M7.88736 119.369H5.81207L0.624512 147.311L5.4663 169.044L10.3081 161.11L8.92467 152.486L9.61655 144.897L12.0376 140.412L7.88736 119.369Z" fill="#3F3D56"/>
<path d="M38.6674 231.482C38.6674 231.482 36.5924 230.792 36.5924 232.172C36.5924 233.551 37.9758 237.691 37.9758 237.691C37.9758 237.691 35.9009 250.455 39.0135 249.765C42.1261 249.075 44.5471 243.211 44.8929 241.486C45.2387 239.761 46.9679 230.792 46.9679 230.792C46.9679 230.792 49.7347 224.237 48.0055 223.893C46.2763 223.548 41.4342 222.168 41.4342 222.168C41.4342 222.168 44.201 230.792 38.6674 231.482Z" fill="#3F3D56"/>
<path d="M28.6382 242.176C28.6382 242.176 23.1046 238.727 22.0669 241.486C21.3788 243.499 20.9148 245.582 20.6835 247.696C20.6835 247.696 19.3001 252.18 24.8337 251.49C30.3674 250.801 29.6755 250.801 30.0216 248.731C30.3678 246.661 28.6382 242.176 28.6382 242.176Z" fill="#3F3D56"/>
<path d="M24.1419 101.086L25.5253 100.741C25.5253 100.741 26.563 94.8769 28.9837 95.5667C31.4044 96.2564 37.63 96.9465 37.63 94.1868C37.63 91.4271 31.7505 89.0122 28.2918 89.3575C24.8331 89.7027 18.9537 90.7373 19.2998 95.9119C19.6459 101.086 21.8774 106.12 21.8774 106.12L22.0577 103.052L24.1419 101.086Z" fill="#3F3D56"/>
<path d="M31.4051 121.439L25.5256 117.3L31.4051 112.47L33.4464 114.913L31.4051 121.439Z" fill="#EEEEFF"/>
<path d="M20.3374 121.094L25.5253 117.299L21.375 111.09L18.954 114.195L20.3374 121.094Z" fill="#EEEEFF"/>
<path d="M45.5845 119.369L34.5172 114.884L31.9234 112.987L24.1417 147.311L18.9538 131.788L20.5103 111.952L6.15732 119.369L10.9991 142.827L11.6906 151.795L9.61568 159.04C9.61568 159.04 2.35283 164.214 4.7739 169.734C7.19496 175.253 9.9618 175.598 9.9618 175.598C9.9618 175.598 21.7207 164.559 22.4125 161.799C23.1044 159.04 24.1417 154.21 24.1417 154.21C24.1417 154.21 30.0212 176.288 36.9382 175.943C43.8553 175.598 43.8553 168.354 43.8553 168.354L42.1261 160.765L39.3593 152.83L40.7427 139.722L45.5845 119.369Z" fill="#3F3D56"/>
<path d="M176.525 145.23C187.903 145.23 197.126 136.03 197.126 124.682C197.126 113.334 187.903 104.135 176.525 104.135C165.148 104.135 155.925 113.334 155.925 124.682C155.925 136.03 165.148 145.23 176.525 145.23Z" fill="#FADA5E"/>
<path fill-rule="evenodd" clip-rule="evenodd" d="M181.942 127.631L185.607 138.809L179.69 134.503L179.689 134.503L179.213 134.157L179.213 134.157L178.537 133.666L178.435 133.591L177.958 133.245L178.642 132.769L179.459 132.167C181.633 130.555 180.254 126.515 177.555 126.375C176.901 126.342 176.09 126.509 175.123 126.875C174.397 127.155 173.676 127.442 172.955 127.731C172.262 127.949 171.804 127.911 171.585 127.612C171.307 127.232 171.335 126.842 171.666 126.442L179.698 120.744L179.702 120.757L191.493 120.735L181.942 127.631Z" fill="#1E1E1E"/>
<path d="M167.312 129.836L157.697 134.675L156.636 135.209L146.527 140.297C146.454 140.334 146.378 140.351 146.303 140.351C146.098 140.351 145.903 140.222 145.812 140.004C145.688 139.707 145.807 139.355 146.078 139.218L156.142 134.153L157.2 133.62L166.863 128.756C167.134 128.62 167.454 128.751 167.578 129.049C167.702 129.347 167.583 129.699 167.312 129.836Z" fill="#1E1E1E"/>
<path d="M165.391 127.686L156.605 132.108L155.545 132.641L148.481 136.196C148.409 136.233 148.333 136.251 148.257 136.251C148.052 136.251 147.857 136.122 147.766 135.904C147.642 135.606 147.761 135.254 148.032 135.118L155.18 131.52L156.245 130.985L164.942 126.607C165.213 126.47 165.533 126.601 165.657 126.9C165.781 127.197 165.662 127.549 165.391 127.686Z" fill="#1E1E1E"/>
<path d="M166.296 133.468L159.119 137.081L158.037 137.625L152.727 140.298C152.654 140.334 152.578 140.351 152.503 140.351C152.298 140.351 152.103 140.223 152.012 140.005C151.888 139.707 152.007 139.355 152.278 139.219L157.412 136.634L158.483 136.096L165.846 132.39C166.117 132.253 166.437 132.385 166.561 132.682C166.685 132.98 166.566 133.332 166.296 133.468Z" fill="#1E1E1E"/>
<path fill-rule="evenodd" clip-rule="evenodd" d="M166.554 138.809L169.521 129.761C170.016 130.295 170.688 130.658 171.483 130.694C172.124 130.724 172.939 130.555 173.928 130.185C174.66 129.912 175.386 129.638 176.103 129.363C176.8 129.168 177.278 129.245 177.535 129.595C177.766 129.911 177.788 130.262 177.599 130.649C177.526 130.804 177.428 130.954 177.305 131.101L166.554 138.809Z" fill="#1E1E1E"/>
<path d="M179.037 118.7L169.665 125.232C169.187 125.581 168.882 126.044 168.726 126.553L160.667 120.736L172.459 120.757L176.082 109.565L178.853 118.131L178.857 118.143L179.037 118.7Z" fill="#1E1E1E"/>
</svg>
