<svg width="24" height="24" viewBox="0 0 24 24" fill="none" xmlns="http://www.w3.org/2000/svg">
<path fill-rule="evenodd" clip-rule="evenodd" d="M5.10857 2H18.8914C20.0537 2 21 2.92 21 4.06V22L18.7886 20.1L17.544 18.98L16.2274 17.79L16.7726 19.64H5.10857C3.94629 19.64 3 18.72 3 17.58V4.06C3 2.92 3.94629 2 5.10857 2ZM14.2423 14.25C14.5509 14.63 14.9211 15.06 14.9211 15.06C17.1943 14.99 18.0686 13.54 18.0686 13.54C18.0686 10.32 16.5874 7.71 16.5874 7.71C15.1063 6.63 13.6971 6.66 13.6971 6.66L13.5531 6.82C15.3017 7.34 16.1143 8.09 16.1143 8.09C15.0446 7.52 13.9954 7.24 13.0183 7.13C12.2777 7.05 11.568 7.07 10.9406 7.15C10.8867 7.15 10.8407 7.15762 10.7888 7.16621C10.7812 7.16746 10.7736 7.16873 10.7657 7.17C10.4057 7.2 9.53143 7.33 8.43086 7.8C8.05029 7.97 7.824 8.09 7.824 8.09C7.824 8.09 8.67771 7.3 10.5291 6.78L10.4263 6.66C10.4263 6.66 9.01714 6.63 7.536 7.71C7.536 7.71 6.05486 10.32 6.05486 13.54C6.05486 13.54 6.91886 14.99 9.192 15.06C9.192 15.06 9.57257 14.61 9.88114 14.23C8.57486 13.85 8.08114 13.05 8.08114 13.05C8.08114 13.05 8.184 13.12 8.36914 13.22C8.37943 13.23 8.38971 13.24 8.41029 13.25C8.42571 13.26 8.44114 13.2675 8.45657 13.275C8.472 13.2825 8.48743 13.29 8.50286 13.3C8.76 13.44 9.01714 13.55 9.25371 13.64C9.67543 13.8 10.1794 13.96 10.7657 14.07C11.5371 14.21 12.4423 14.26 13.4297 14.08C13.9131 14 14.4069 13.86 14.9211 13.65C15.2811 13.52 15.6823 13.33 16.104 13.06C16.104 13.06 15.5897 13.88 14.2423 14.25ZM9.08923 11.5C9.08923 10.89 9.55209 10.39 10.1384 10.39C10.7247 10.39 11.1978 10.89 11.1875 11.5C11.1875 12.11 10.7247 12.61 10.1384 12.61C9.56238 12.61 9.08923 12.11 9.08923 11.5ZM12.8435 11.5C12.8435 10.89 13.3064 10.39 13.8927 10.39C14.4789 10.39 14.9418 10.89 14.9418 11.5C14.9418 12.11 14.4789 12.61 13.8927 12.61C13.3167 12.61 12.8435 12.11 12.8435 11.5Z" fill="white"/>
</svg>
