<svg width="24" height="24" viewBox="0 0 24 24" fill="none" xmlns="http://www.w3.org/2000/svg">
<path d="M20.7041 7.1293C19.8272 5.57236 18.564 4.27998 17.0421 3.38291C15.5063 2.45897 13.7533 1.98074 11.9717 1.99962C10.2474 2.01167 8.55674 2.48882 7.0703 3.38291C5.54844 4.27998 4.28518 5.57236 3.40832 7.1293C2.49532 8.67799 2.00866 10.4504 1.99987 12.259C1.98767 14.4165 2.6598 16.5198 3.91537 18.2532C5.13999 19.9934 6.87756 21.2862 8.87311 21.942C8.9561 21.9739 9.04527 21.9853 9.13338 21.9752C9.22148 21.9652 9.30603 21.9341 9.38015 21.8843C9.4863 21.7779 9.54705 21.6329 9.54917 21.4809V20.7316V19.5789H9.21114C8.97122 19.6414 8.72594 19.68 8.47875 19.6941C8.17569 19.6811 7.8742 19.6426 7.57734 19.5789C7.26884 19.5134 6.9795 19.3752 6.73227 19.1754C6.4715 18.9685 6.27565 18.688 6.16889 18.3685L5.99987 18.0227C5.89213 17.7968 5.75984 17.5842 5.60551 17.3887C5.46901 17.1504 5.27503 16.9519 5.04213 16.8123H4.92945C4.86628 16.7621 4.8095 16.704 4.76044 16.6394C4.71521 16.5874 4.67729 16.5292 4.64776 16.4665L4.7041 16.2936C4.82919 16.2425 4.9644 16.2227 5.09846 16.2359H5.38015C5.60589 16.3109 5.81603 16.4282 5.99987 16.5818C6.25407 16.7624 6.46577 16.9986 6.61959 17.2734C6.78884 17.62 7.04073 17.9173 7.35199 18.1379C7.59926 18.3181 7.89357 18.4185 8.19706 18.4261C8.46122 18.4357 8.72563 18.4163 8.98579 18.3685C9.18176 18.3145 9.37085 18.2371 9.54917 18.1379C9.58751 17.6159 9.80736 17.1252 10.1689 16.7547C9.732 16.7106 9.29889 16.6335 8.87311 16.5241C8.44018 16.4056 8.0237 16.2313 7.63368 16.0054C7.2046 15.7985 6.82122 15.5043 6.50692 15.1408C6.23569 14.6992 6.04483 14.2111 5.94354 13.6999C5.75506 13.0646 5.66012 12.4042 5.66184 11.7403C5.6407 11.2244 5.71941 10.7093 5.89344 10.2246C6.06747 9.73996 6.33339 9.29525 6.67593 8.91605C6.34639 8.04051 6.36662 7.06752 6.73227 6.20711C7.11625 6.13862 7.51159 6.19929 7.85903 6.38003C8.2473 6.52253 8.62404 6.69597 8.98579 6.89876L9.54917 7.24458C11.172 6.79112 12.8841 6.79112 14.5069 7.24458L15.014 6.89876C15.39 6.66943 15.786 6.47648 16.1971 6.32239C16.5321 6.16565 16.9079 6.12517 17.2675 6.20711C17.6514 7.05989 17.6919 8.03299 17.3802 8.91605C18.058 9.66758 18.4219 10.6604 18.3942 11.6826C18.3951 12.3465 18.3002 13.0068 18.1125 13.6423C17.9806 14.1629 17.751 14.6522 17.4365 15.0832C17.1357 15.4374 16.7726 15.7307 16.3661 15.9477C15.9935 16.1687 15.5963 16.3429 15.183 16.4665C14.7387 16.5788 14.2867 16.6558 13.8309 16.697C14.0742 16.9431 14.2611 17.2413 14.378 17.5702C14.4949 17.8992 14.5389 18.2506 14.5069 18.599V21.4233C14.509 21.5753 14.5698 21.7203 14.6759 21.8267C14.7501 21.8764 14.8346 21.9076 14.9227 21.9176C15.0108 21.9276 15.1 21.9162 15.183 21.8843C17.1785 21.2286 18.9161 19.9358 20.1407 18.1956C21.3762 16.455 22.0284 14.3523 21.9999 12.2014C22.0354 10.3841 21.5875 8.59105 20.7041 7.01403V7.1293Z" fill="white"/>
</svg>
