<svg width="24" height="24" viewBox="0 0 24 24" fill="none" xmlns="http://www.w3.org/2000/svg">
<path d="M20.7041 7.1293C19.8273 5.57236 18.564 4.27998 17.0422 3.38291C15.5063 2.45897 13.7534 1.98074 11.9718 1.99962C10.2475 2.01167 8.55679 2.48882 7.07034 3.38291C5.54848 4.27998 4.28522 5.57236 3.40837 7.1293C2.49536 8.67799 2.0087 10.4504 1.99992 12.259C1.98772 14.4165 2.65984 16.5198 3.91541 18.2532C5.14003 19.9934 6.87761 21.2862 8.87316 21.942C8.95615 21.9739 9.04532 21.9853 9.13342 21.9752C9.22153 21.9652 9.30608 21.9341 9.3802 21.8843C9.48635 21.7779 9.5471 21.6329 9.54921 21.4809V20.7316V19.5789H9.21119C8.97127 19.6414 8.72599 19.68 8.47879 19.6941C8.17574 19.6811 7.87425 19.6426 7.57738 19.5789C7.26889 19.5134 6.97955 19.3752 6.73231 19.1754C6.47154 18.9685 6.27569 18.688 6.16893 18.3685L5.99992 18.0227C5.89217 17.7968 5.75988 17.5842 5.60555 17.3887C5.46906 17.1504 5.27508 16.9519 5.04217 16.8123H4.9295C4.86632 16.7621 4.80954 16.704 4.76048 16.6394C4.71526 16.5874 4.67733 16.5292 4.64781 16.4665L4.70414 16.2936C4.82923 16.2425 4.96444 16.2227 5.09851 16.2359H5.3802C5.60593 16.3109 5.81607 16.4282 5.99992 16.5818C6.25412 16.7624 6.46581 16.9986 6.61964 17.2734C6.78889 17.62 7.04078 17.9173 7.35203 18.1379C7.5993 18.3181 7.89361 18.4185 8.1971 18.4261C8.46127 18.4357 8.72567 18.4163 8.98583 18.3685C9.1818 18.3145 9.37089 18.2371 9.54921 18.1379C9.58755 17.6159 9.8074 17.1252 10.1689 16.7547C9.73204 16.7106 9.29893 16.6335 8.87316 16.5241C8.44022 16.4056 8.02375 16.2313 7.63372 16.0054C7.20465 15.7985 6.82127 15.5043 6.50696 15.1408C6.23574 14.6992 6.04487 14.2111 5.94358 13.6999C5.7551 13.0646 5.66016 12.4042 5.66189 11.7403C5.64075 11.2244 5.71945 10.7093 5.89348 10.2246C6.06751 9.73996 6.33344 9.29525 6.67598 8.91605C6.34643 8.04051 6.36667 7.06752 6.73231 6.20711C7.11629 6.13862 7.51163 6.19929 7.85907 6.38003C8.24734 6.52253 8.62408 6.69597 8.98583 6.89876L9.54921 7.24458C11.1721 6.79112 12.8841 6.79112 14.507 7.24458L15.014 6.89876C15.39 6.66943 15.7861 6.47648 16.1971 6.32239C16.5321 6.16565 16.908 6.12517 17.2675 6.20711C17.6515 7.05989 17.6919 8.03299 17.3802 8.91605C18.0581 9.66758 18.422 10.6604 18.3943 11.6826C18.3952 12.3465 18.3003 13.0068 18.1126 13.6423C17.9806 14.1629 17.751 14.6522 17.4365 15.0832C17.1358 15.4374 16.7727 15.7307 16.3661 15.9477C15.9936 16.1687 15.5963 16.3429 15.183 16.4665C14.7388 16.5788 14.2867 16.6558 13.8309 16.697C14.0742 16.9431 14.2611 17.2413 14.378 17.5702C14.495 17.8992 14.539 18.2506 14.507 18.599V21.4233C14.5091 21.5753 14.5698 21.7203 14.676 21.8267C14.7501 21.8764 14.8346 21.9076 14.9228 21.9176C15.0109 21.9276 15.1 21.9162 15.183 21.8843C17.1786 21.2286 18.9161 19.9358 20.1408 18.1956C21.3763 16.455 22.0284 14.3523 21.9999 12.2014C22.0355 10.3841 21.5876 8.59105 20.7041 7.01403V7.1293Z" fill="#3F3D56"/>
</svg>
