<svg width="24" height="24" viewBox="0 0 24 24" fill="none" xmlns="http://www.w3.org/2000/svg">
<path d="M2.52616 11.6265L7.10375 13.3792L8.84008 19.2947C8.85879 19.3928 8.90295 19.4836 8.96775 19.5574C9.03255 19.6313 9.11553 19.6852 9.20769 19.7134C9.29985 19.7416 9.39767 19.7431 9.49054 19.7175C9.58342 19.692 9.6678 19.6404 9.73455 19.5685L12.2601 17.3776C12.3928 17.2617 12.5605 17.1982 12.7337 17.1982C12.9069 17.1982 13.0745 17.2617 13.2072 17.3776L17.7848 20.8831C17.8558 20.9411 17.94 20.9792 18.0293 20.9936C18.1186 21.0079 18.2099 20.9981 18.2945 20.9651C18.379 20.9321 18.454 20.877 18.5122 20.8051C18.5704 20.7331 18.6098 20.6468 18.6266 20.5544L21.9941 3.62971C22.0075 3.53725 21.998 3.44275 21.9664 3.35521C21.9349 3.26767 21.8823 3.19 21.8137 3.1296C21.7451 3.0692 21.6629 3.02808 21.5747 3.01016C21.4865 2.99223 21.3954 2.9981 21.3101 3.02721L2.52616 10.5311C2.38661 10.5311 2.25278 10.5888 2.15411 10.6915C2.05543 10.7942 2 10.9335 2 11.0788C2 11.224 2.05543 11.3634 2.15411 11.4661C2.25278 11.5688 2.38661 11.6265 2.52616 11.6265ZM8.577 12.4481L17.5217 6.69697C17.5555 6.686 17.5918 6.68716 17.6249 6.70028C17.658 6.71339 17.6859 6.7377 17.7041 6.76929C17.7223 6.80088 17.7298 6.83793 17.7253 6.87448C17.7209 6.91103 17.7048 6.94497 17.6796 6.97084L10.3133 14.0913C10.0511 14.3533 9.88388 14.7016 9.83978 15.0772L9.5767 16.9942C9.5767 17.0523 9.55453 17.1081 9.51506 17.1491C9.47559 17.1902 9.42206 17.2133 9.36624 17.2133C9.31042 17.2133 9.25689 17.1902 9.21742 17.1491C9.17795 17.1081 9.15577 17.0523 9.15577 16.9942L8.15607 13.4888C8.0939 13.2837 8.10186 13.0625 8.1786 12.8628C8.25533 12.6631 8.3961 12.4972 8.577 12.3933V12.4481Z" fill="#3F3D56"/>
</svg>
