<svg width="20" height="19" viewBox="0 0 20 19" fill="none" xmlns="http://www.w3.org/2000/svg">
<path d="M18.9901 15.99L14.0501 11.05L11.9301 13.17L16.8701 18.11C17.4601 18.7 18.4101 18.7 18.9901 18.11C19.5701 17.52 19.5701 16.57 18.9901 15.99Z" fill="#3F3D56"/>
<path d="M15.65 8C17.58 8 19.15 6.43 19.15 4.5C19.15 3.92 18.99 3.38 18.74 2.9L16.04 5.6L14.55 4.11L17.25 1.41C16.77 1.16 16.23 1 15.65 1C13.72 1 12.15 2.57 12.15 4.5C12.15 4.91 12.23 5.3 12.36 5.66L10.51 7.51L8.73004 5.73C9.12004 5.34 9.12004 4.71 8.73004 4.32L8.02004 3.61L10.14 1.49C8.97004 0.320003 7.07004 0.320003 5.90004 1.49L3.08004 4.32C2.69004 4.71 2.69004 5.34 3.08004 5.73L3.79004 6.44H1.25004C1.06004 6.44 0.880039 6.51 0.750039 6.65C0.470039 6.93 0.470039 7.37 0.750039 7.65L3.29004 10.19C3.57004 10.47 4.01004 10.47 4.29004 10.19C4.42004 10.06 4.50004 9.88 4.50004 9.69V7.15L5.20004 7.85C5.59004 8.24 6.22004 8.24 6.61004 7.85L8.39004 9.63L2.04004 15.98C1.45004 16.57 1.45004 17.52 2.04004 18.1C2.63004 18.69 3.58004 18.69 4.16004 18.1L14.48 7.79C14.85 7.92 15.24 8 15.65 8Z" fill="#3F3D56"/>
</svg>
