<svg width="24" height="24" viewBox="0 0 24 24" fill="none" xmlns="http://www.w3.org/2000/svg">
<path d="M22 5.9C21.4332 6.71667 20.7479 7.4125 19.9442 7.9875C19.9526 8.10417 19.9569 8.27917 19.9569 8.5125C19.9569 9.59583 19.7961 10.6771 19.4746 11.7562C19.1531 12.8354 18.6646 13.8708 18.0089 14.8625C17.3532 15.8542 16.5728 16.7312 15.6675 17.4938C14.7623 18.2563 13.6709 18.8646 12.3934 19.3188C11.1159 19.7729 9.74958 20 8.29442 20C6.00169 20 3.90355 19.3958 2 18.1875C2.29611 18.2208 2.62606 18.2375 2.98985 18.2375C4.8934 18.2375 6.58968 17.6625 8.07868 16.5125C7.19036 16.4958 6.39509 16.2271 5.69289 15.7063C4.99069 15.1854 4.50846 14.5208 4.24619 13.7125C4.52538 13.7542 4.78342 13.775 5.0203 13.775C5.38409 13.775 5.74365 13.7292 6.09898 13.6375C5.15144 13.4458 4.36675 12.9812 3.74492 12.2438C3.1231 11.5062 2.81218 10.65 2.81218 9.675V9.625C3.38748 9.94167 4.00508 10.1125 4.66497 10.1375C4.1066 9.77083 3.66244 9.29167 3.33249 8.7C3.00254 8.10833 2.83756 7.46667 2.83756 6.775C2.83756 6.04167 3.02369 5.3625 3.39594 4.7375C4.41963 5.97917 5.6654 6.97292 7.13325 7.71875C8.6011 8.46458 10.1726 8.87917 11.8477 8.9625C11.78 8.64583 11.7462 8.3375 11.7462 8.0375C11.7462 6.92083 12.1459 5.96875 12.9454 5.18125C13.7449 4.39375 14.7115 4 15.8452 4C17.0296 4 18.0279 4.425 18.8401 5.275C19.7623 5.1 20.6294 4.775 21.4416 4.3C21.1286 5.25833 20.5279 6 19.6396 6.525C20.4264 6.44167 21.2132 6.23333 22 5.9Z" fill="#3F3D56"/>
</svg>
